<svg width="341.78749999999997px" height="122px" xmlns="http://www.w3.org/2000/svg" viewBox="79.10625000000002 14 341.78749999999997 122" style="background: rgba(0, 0, 0, 0);" preserveAspectRatio="xMidYMid"><defs><filter id="editing-vr"><feFlood flood-color="#f00" flood-opacity="0.7" result="c1"></feFlood><feFlood flood-color="#00f" flood-opacity="0.7" result="c3"></feFlood><feComposite operator="in" in="c1" in2="SourceAlpha" result="text-c1"></feComposite><feComposite operator="in" in="c3" in2="SourceAlpha" result="text-c3"></feComposite><feOffset in="text-c1" dx="5" dy="-1" result="text1"></feOffset><feOffset in="text-c3" dx="-5" dy="1" result="text3"></feOffset><feBlend in="SourceGraphic" in2="text1" mode="multiply" result="text4"></feBlend><feBlend in="text4" in2="text3" mode="multiply"></feBlend></filter></defs><g filter="url(#editing-vr)"><g transform="translate(131.37498533725739, 104.47000122070312)"><path d="M34.50-13.25L34.50-13.25L34.50-13.25Q36.16-12.03 36.16-9.44L36.16-9.44L36.16-9.44Q36.16-6.85 35.04-5.02L35.04-5.02L35.04-5.02Q33.92-3.20 31.74-1.79L31.74-1.79L31.74-1.79Q27.07 1.22 18.91 1.22L18.91 1.22L18.91 1.22Q10.75 1.22 6.30-3.04L6.30-3.04L6.30-3.04Q1.86-7.30 1.86-14.85L1.86-14.85L1.86-14.85Q1.86-25.54 7.42-33.66L7.42-33.66L7.42-33.66Q11.65-39.68 19.20-42.24L19.20-42.24L19.20-42.24Q23.10-43.52 26.94-43.52L26.94-43.52L26.94-43.52Q30.78-43.52 33.15-43.01L33.15-43.01L33.15-43.01Q35.52-42.50 37.31-41.47L37.31-41.47L37.31-41.47Q41.22-39.23 41.22-35.65L41.22-35.65L41.22-35.65Q41.22-32.38 38.14-29.95L38.14-29.95L38.14-29.95Q35.33-27.78 33.02-27.78L33.02-27.78L33.02-27.78Q30.72-27.78 29.76-28.10L29.76-28.10L29.76-28.10Q30.02-30.40 30.02-31.90L30.02-31.90L30.02-31.90Q30.02-33.41 29.95-34.50L29.95-34.50L29.95-34.50Q29.89-35.58 29.57-36.61L29.57-36.61L29.57-36.61Q28.93-38.98 26.98-38.98L26.98-38.98L26.98-38.98Q25.02-38.98 23.07-37.15L23.07-37.15L23.07-37.15Q21.12-35.33 19.46-32.26L19.46-32.26L19.46-32.26Q15.68-25.28 15.68-17.02L15.68-17.02L15.68-17.02Q15.68-13.06 17.92-10.78L17.92-10.78L17.92-10.78Q20.16-8.51 24.96-8.51L24.96-8.51L24.96-8.51Q28.54-8.51 31.94-10.88L31.94-10.88L31.94-10.88Q33.41-11.90 34.50-13.25ZM73.66-7.10L73.66-7.10L73.66-7.10Q73.66-4.29 76.54-3.46L76.54-3.46L76.54-3.46Q75.84-1.09 73.09 0.19L73.09 0.19L73.09 0.19Q70.78 1.28 68.26 1.28L68.26 1.28L68.26 1.28Q65.73 1.28 64.42 0.61L64.42 0.61L64.42 0.61Q63.10-0.06 62.40-1.15L62.40-1.15L62.40-1.15Q61.25-2.82 61.25-5.95L61.25-5.95L61.25-5.95Q61.25-7.81 62.27-12.93L62.27-12.93L63.17-17.79L63.17-17.79Q64.26-23.36 64.26-25.41L64.26-25.41L64.26-25.41Q64.26-28.99 62.27-28.99L62.27-28.99L62.27-28.99Q59.78-28.99 58.18-25.34L58.18-25.34L58.18-25.34Q57.54-23.94 57.09-21.82L57.09-21.82L52.74 0L39.87 1.28L48.90-44.80L61.76-46.08L61.25-43.52L61.25-43.52Q59.46-33.66 57.92-30.34L57.92-30.34L57.92-30.34Q61.50-33.92 68.10-33.92L68.10-33.92L68.10-33.92Q75.07-33.92 76.35-29.31L76.35-29.31L76.35-29.31Q76.80-27.84 76.80-26.56L76.80-26.56L76.80-26.56Q76.80-25.28 76.70-24.29L76.70-24.29L76.70-24.29Q76.61-23.30 76.29-21.50L76.29-21.50L75.46-16.90L73.98-9.66L73.98-9.66Q73.66-8.19 73.66-7.10ZM95.68 1.28L95.68 1.28L95.68 1.28Q81.60 1.28 81.60-11.97L81.60-11.97L81.60-11.97Q81.60-21.38 86.78-27.46L86.78-27.46L86.78-27.46Q92.29-33.92 101.82-33.92L101.82-33.92L101.82-33.92Q108.74-33.92 112.26-30.72L112.26-30.72L112.26-30.72Q115.78-27.52 115.78-20.80L115.78-20.80L115.78-20.80Q115.78-10.56 110.27-4.61L110.27-4.61L110.27-4.61Q104.90 1.28 95.68 1.28ZM97.34-26.56L97.34-26.56L97.34-26.56Q96.58-24.83 95.97-22.24L95.97-22.24L95.97-22.24Q95.36-19.65 94.59-15.55L94.59-15.55L94.59-15.55Q93.82-11.46 93.82-6.40L93.82-6.40L93.82-6.40Q93.82-4.74 94.37-3.65L94.37-3.65L94.37-3.65Q94.91-2.56 96.38-2.56L96.38-2.56L96.38-2.56Q97.86-2.56 98.78-3.26L98.78-3.26L98.78-3.26Q99.71-3.97 100.42-5.63L100.42-5.63L100.42-5.63Q101.70-8.58 102.72-14.05L102.72-14.05L102.72-14.05Q103.74-19.52 103.84-21.89L103.84-21.89L103.84-21.89Q103.94-24.26 103.94-26.02L103.94-26.02L103.94-26.02Q103.94-27.78 103.42-28.93L103.42-28.93L103.42-28.93Q102.91-30.08 101.47-30.08L101.47-30.08L101.47-30.08Q100.03-30.08 99.07-29.18L99.07-29.18L99.07-29.18Q98.11-28.29 97.34-26.56ZM118.72-3.07L118.72-3.07L126.66-44.80L139.65-46.08L137.66-36.29L137.66-36.29Q136.96-33.28 136.06-31.17L136.06-31.17L136.06-31.17Q137.47-32.96 140.54-33.66L140.54-33.66L140.54-33.66Q141.44-33.92 142.53-33.92L142.53-33.92L142.53-33.92Q148.48-33.92 151.74-30.30L151.74-30.30L151.74-30.30Q155.01-26.69 155.01-19.71L155.01-19.71L155.01-19.71Q155.01-10.62 149.82-4.93L149.82-4.93L149.82-4.93Q144.26 1.28 134.14 1.28L134.14 1.28L134.14 1.28Q127.17 1.28 121.92-1.02L121.92-1.02L121.92-1.02Q120.06-1.86 118.72-3.07ZM134.98-22.40L131.58-3.65L131.58-3.65Q132.93-2.50 134.59-2.50L134.59-2.50L134.59-2.50Q136.26-2.50 137.22-3.14L137.22-3.14L137.22-3.14Q138.18-3.78 138.88-5.06L138.88-5.06L138.88-5.06Q140.80-8.51 142.34-19.07L142.34-19.07L142.34-19.07Q142.78-22.08 142.78-25.09L142.78-25.09L142.78-25.09Q142.78-28.10 142.11-29.06L142.11-29.06L142.11-29.06Q141.44-30.02 140.16-30.02L140.16-30.02L140.16-30.02Q136.26-30.02 134.98-22.40L134.98-22.40ZM158.02-3.07L158.02-3.07L165.95-44.80L178.94-46.08L176.96-36.29L176.96-36.29Q176.26-33.28 175.36-31.17L175.36-31.17L175.36-31.17Q176.77-32.96 179.84-33.66L179.84-33.66L179.84-33.66Q180.74-33.92 181.82-33.92L181.82-33.92L181.82-33.92Q187.78-33.92 191.04-30.30L191.04-30.30L191.04-30.30Q194.30-26.69 194.30-19.71L194.30-19.71L194.30-19.71Q194.30-10.62 189.12-4.93L189.12-4.93L189.12-4.93Q183.55 1.28 173.44 1.28L173.44 1.28L173.44 1.28Q166.46 1.28 161.22-1.02L161.22-1.02L161.22-1.02Q159.36-1.86 158.02-3.07ZM174.27-22.40L170.88-3.65L170.88-3.65Q172.22-2.50 173.89-2.50L173.89-2.50L173.89-2.50Q175.55-2.50 176.51-3.14L176.51-3.14L176.51-3.14Q177.47-3.78 178.18-5.06L178.18-5.06L178.18-5.06Q180.10-8.51 181.63-19.07L181.63-19.07L181.63-19.07Q182.08-22.08 182.08-25.09L182.08-25.09L182.08-25.09Q182.08-28.10 181.41-29.06L181.41-29.06L181.41-29.06Q180.74-30.02 179.46-30.02L179.46-30.02L179.46-30.02Q175.55-30.02 174.27-22.40L174.27-22.40ZM218.50-7.23L218.50-7.23L218.50-7.23Q215.17-3.78 209.09-3.78L209.09-3.78L209.09-3.78Q201.47-3.78 199.87-9.34L199.87-9.34L199.87-9.34Q199.36-11.01 199.36-12.86L199.36-12.86L199.36-12.86Q199.36-14.72 199.74-16.64L199.74-16.64L202.75-32.64L215.74-33.92L212.22-15.30L212.22-15.30Q212.10-14.46 211.90-13.57L211.90-13.57L211.90-13.57Q211.71-12.67 211.71-11.74L211.71-11.74L211.71-11.74Q211.71-10.82 212.03-10.21L212.03-10.21L212.03-10.21Q212.35-9.60 212.80-9.22L212.80-9.22L212.80-9.22Q213.57-8.70 214.94-8.70L214.94-8.70L214.94-8.70Q216.32-8.70 217.50-10.37L217.50-10.37L217.50-10.37Q218.69-12.03 219.26-14.91L219.26-14.91L222.78-32.64L235.39-33.92L230.59-8.77L230.59-8.77Q228.22 3.52 223.36 8.38L223.36 8.38L223.36 8.38Q220.86 10.88 217.63 11.87L217.63 11.87L217.63 11.87Q214.40 12.86 210.24 12.86L210.24 12.86L210.24 12.86Q203.52 12.86 199.68 10.75L199.68 10.75L199.68 10.75Q195.84 8.64 195.84 5.12L195.84 5.12L195.84 5.12Q195.84 2.50 197.82 0.99L197.82 0.99L197.82 0.99Q199.81-0.51 202.88-0.51L202.88-0.51L202.88-0.51Q205.57-0.51 207.62 0.64L207.62 0.64L207.62 0.64Q208.83 1.34 209.41 2.24L209.41 2.24L209.41 2.24Q207.94 3.52 207.94 5.63L207.94 5.63L207.94 5.63Q207.94 8.45 210.50 8.45L210.50 8.45L210.50 8.45Q214.72 8.45 217.15-1.28L217.15-1.28L217.15-1.28Q217.86-4.16 218.50-7.23Z" fill="#444"></path></g></g><style>text {
  font-size: 64px;
  font-family: Arial Black;
  dominant-baseline: central;
  text-anchor: middle;
}</style></svg>